<?xml version="1.0" encoding="utf-8"?>
<!-- Generator: Adobe Illustrator 23.0.2, SVG Export Plug-In . SVG Version: 6.00 Build 0)  -->
<svg version="1.1" id="Layer_1" xmlns="http://www.w3.org/2000/svg" xmlns:xlink="http://www.w3.org/1999/xlink" x="0px" y="0px"
	 viewBox="0 0 500 500" style="enable-background:new 0 0 500 500;" xml:space="preserve">
<style type="text/css">
	.st0{fill:#5BC500;}
</style>
<path class="st0" d="M263,347.4c-62.1,0-112.7-51.3-112.7-114.4v-91.1c0-63.1,50.5-114.4,112.7-114.4c62.1,0,112.7,51.3,112.7,114.4
	v91.5C375.7,296.3,325.1,347.4,263,347.4z M263,48.6c-50.4,0-91.5,41.8-91.5,93.2V233c0,51.4,41,93.2,91.5,93.2
	c50.4,0,91.5-41.7,91.5-92.9v-91.5C354.5,90.5,313.4,48.6,263,48.6z"/>
<path class="st0" d="M263,173.3c-5.9,0-10.6-4.7-10.6-10.6v-37.1c0-5.9,4.7-10.6,10.6-10.6c5.9,0,10.6,4.7,10.6,10.6v37.1
	C273.6,168.6,268.9,173.3,263,173.3z"/>
<path class="st0" d="M188.3,372.5c-3.2,0-6.4,1.5-8.4,4.3c-3.3,4.7-2.2,11.1,2.4,14.4c23.7,16.9,51.9,25.8,81.2,25.8
	c29.3,0,57.5-8.9,81.2-25.8c4.7-3.3,5.7-9.8,2.4-14.4c-3.3-4.7-9.8-5.7-14.4-2.4c-20.1,14.4-44,21.9-69.1,21.9
	c-25.1,0-49.1-7.6-69.3-22C192.5,373,190.3,372.5,188.3,372.5L188.3,372.5z M188.3,372.5"/>
<path class="st0" d="M199.9,434.4c-2.7,0-5.4,1.3-7.1,3.7c-2.8,4-1.8,9.4,2,12.2c20.1,14.3,43.9,21.8,68.7,21.8
	c24.8,0,48.6-7.5,68.7-21.8c4-2.8,4.8-8.3,2-12.2c-2.8-4-8.3-4.8-12.2-2c-17,12.2-37.2,18.5-58.5,18.5c-21.2,0-41.5-6.5-58.6-18.6
	C203.5,434.8,201.6,434.4,199.9,434.4L199.9,434.4z M199.9,434.4"/>
</svg>
