<?xml version="1.0" encoding="utf-8"?>
<!-- Generator: Adobe Illustrator 23.0.2, SVG Export Plug-In . SVG Version: 6.00 Build 0)  -->
<svg version="1.1" id="Layer_1" xmlns="http://www.w3.org/2000/svg" xmlns:xlink="http://www.w3.org/1999/xlink" x="0px" y="0px"
	 viewBox="0 0 500 500" style="enable-background:new 0 0 500 500;" xml:space="preserve">
<style type="text/css">
	.st0{fill:#5BC500;}
</style>
<g>
	<path class="st0" d="M77.6,188.6c-6.2,0-11.2-5-11.2-11.2V86.1c0-6.2,5-11.2,11.2-11.2c6.2,0,11.2,5,11.2,11.2l0.4,91.5
		C89.2,183.9,83.8,188.6,77.6,188.6z"/>
	<path class="st0" d="M38.3,166.3c-6.2,0-11.2-5-11.2-11.2V63.9c0-6.2,5-11.2,11.2-11.2s11.2,5,11.2,11.2l0.4,91.5
		C50,161.6,44.5,166.3,38.3,166.3z"/>
	<path class="st0" d="M422.4,291.1c6.2,0,11.2,5,11.2,11.2v91.2c0,6.2-5,11.2-11.2,11.2s-11.2-5-11.2-11.2l-0.4-91.5
		C410.8,295.8,416.2,291.1,422.4,291.1z"/>
	<path class="st0" d="M461.7,313.4c6.2,0,11.2,5,11.2,11.2v91.2c0,6.2-5,11.2-11.2,11.2s-11.2-5-11.2-11.2l-0.4-91.5
		C450,318.1,455.5,313.4,461.7,313.4z"/>
	<path class="st0" d="M347.8,199.9c-10.1-6.8-20.6-9.4-28.8-10.2c-10.6-14.1-25.8-21.9-43.3-21.9c-3.8,0-7.8,0.4-11.7,1.1
		c-10.4-11.9-24.7-18.4-40.8-18.4c-0.3,0-0.6,0-0.9,0l-0.1-58.7c0-13.5-5.2-25.5-14.6-33.8c-8.2-7.3-19.1-11.3-30.6-11.3
		c-12.3,0-24.2,4.8-32.5,13.1c-8.3,8.4-12.7,19.5-12.7,32.2l0.1,84.6l0.1,53.7c-12.1,6.5-20.4,16.7-24.3,29.8
		c-6,20.3-1.2,46.4,14.5,79.8c10.4,22,22.8,41.3,28.8,50.1l2.6,35.1c1.2,15.7,14.4,28,30.2,28l125.2-0.1c15.1,0,28-11.3,29.9-26.3
		l4.9-37c29.6-46.3,40.4-94.4,32.2-142.8C371.5,220.7,358.2,206.9,347.8,199.9L347.8,199.9z M326.7,380.9c-0.9,1.4-1.5,3-1.7,4.6
		l-5.1,38.8c-0.7,5.5-5.4,9.3-11,9.3l-125.2-0.2c0,0,0,0,0,0c-5.8,0-10.7-4.1-11.1-10l-2.8-37.1c-0.1-2-0.8-3.8-1.9-5.4
		c-11.5-16.6-75.4-113.7-23.6-135.4c4.1-1.7,6.8-5.7,6.8-10.2c0-26.4-0.1-114.2-0.2-143.4c0-17.4,13-26.1,26.1-26.1
		c13.1,0,26.1,8.7,26.1,26.1l0.1,67.3c0,6.2,5.1,11.1,11.1,11.1c0.6,0,1.2-0.1,1.8-0.1c2.2-0.3,4.6-0.6,7.1-0.6
		c9.4,0,20.4,3.1,28.8,14.8c2.1,2.9,5.4,4.5,8.9,4.5c1,0,2-0.1,2.9-0.4c3.3-0.9,7.4-1.6,11.9-1.6c9.8,0,21.4,3.5,29.9,17
		c1.7,2.7,4.6,4.4,7.8,4.5c11.3,0.4,37.5,5.4,43.6,41.7C362.8,283.9,360.1,329.2,326.7,380.9L326.7,380.9z M326.7,380.9"/>
</g>
</svg>
